%TF.GenerationSoftware,KiCad,Pcbnew,10.0.5*%
%TF.CreationDate,2026-09-26T22:41:34+05:30*%
%TF.ProjectId,Light sensor,4c696768-7420-4736-956e-736f722e6b69,rev?*%
%TF.SameCoordinates,Original*%
%TF.FileFunction,Legend,Top*%
%TF.FilePolarity,Positive*%
%FSLAX46Y46*%
G04 Gerber Fmt 4.6, Leading zero omitted, Abs format (unit mm)*
G04 Created by KiCad (PCBNEW 10.0.5) date 2026-09-26 22:41:34*
%MOMM*%
%LPD*%
G01*
G04 APERTURE LIST*
%ADD10C,0.150000*%
%ADD11C,0.120000*%
%ADD12C,0.127000*%
%ADD13C,0.200000*%
G04 APERTURE END LIST*
D10*
X136333333Y-101054819D02*
X136000000Y-100578628D01*
X135761905Y-101054819D02*
X135761905Y-100054819D01*
X135761905Y-100054819D02*
X136142857Y-100054819D01*
X136142857Y-100054819D02*
X136238095Y-100102438D01*
X136238095Y-100102438D02*
X136285714Y-100150057D01*
X136285714Y-100150057D02*
X136333333Y-100245295D01*
X136333333Y-100245295D02*
X136333333Y-100388152D01*
X136333333Y-100388152D02*
X136285714Y-100483390D01*
X136285714Y-100483390D02*
X136238095Y-100531009D01*
X136238095Y-100531009D02*
X136142857Y-100578628D01*
X136142857Y-100578628D02*
X135761905Y-100578628D01*
X137285714Y-101054819D02*
X136714286Y-101054819D01*
X137000000Y-101054819D02*
X137000000Y-100054819D01*
X137000000Y-100054819D02*
X136904762Y-100197676D01*
X136904762Y-100197676D02*
X136809524Y-100292914D01*
X136809524Y-100292914D02*
X136714286Y-100340533D01*
X157833333Y-101054819D02*
X157500000Y-100578628D01*
X157261905Y-101054819D02*
X157261905Y-100054819D01*
X157261905Y-100054819D02*
X157642857Y-100054819D01*
X157642857Y-100054819D02*
X157738095Y-100102438D01*
X157738095Y-100102438D02*
X157785714Y-100150057D01*
X157785714Y-100150057D02*
X157833333Y-100245295D01*
X157833333Y-100245295D02*
X157833333Y-100388152D01*
X157833333Y-100388152D02*
X157785714Y-100483390D01*
X157785714Y-100483390D02*
X157738095Y-100531009D01*
X157738095Y-100531009D02*
X157642857Y-100578628D01*
X157642857Y-100578628D02*
X157261905Y-100578628D01*
X158214286Y-100150057D02*
X158261905Y-100102438D01*
X158261905Y-100102438D02*
X158357143Y-100054819D01*
X158357143Y-100054819D02*
X158595238Y-100054819D01*
X158595238Y-100054819D02*
X158690476Y-100102438D01*
X158690476Y-100102438D02*
X158738095Y-100150057D01*
X158738095Y-100150057D02*
X158785714Y-100245295D01*
X158785714Y-100245295D02*
X158785714Y-100340533D01*
X158785714Y-100340533D02*
X158738095Y-100483390D01*
X158738095Y-100483390D02*
X158166667Y-101054819D01*
X158166667Y-101054819D02*
X158785714Y-101054819D01*
X137454819Y-106995238D02*
X136978628Y-107328571D01*
X137454819Y-107566666D02*
X136454819Y-107566666D01*
X136454819Y-107566666D02*
X136454819Y-107185714D01*
X136454819Y-107185714D02*
X136502438Y-107090476D01*
X136502438Y-107090476D02*
X136550057Y-107042857D01*
X136550057Y-107042857D02*
X136645295Y-106995238D01*
X136645295Y-106995238D02*
X136788152Y-106995238D01*
X136788152Y-106995238D02*
X136883390Y-107042857D01*
X136883390Y-107042857D02*
X136931009Y-107090476D01*
X136931009Y-107090476D02*
X136978628Y-107185714D01*
X136978628Y-107185714D02*
X136978628Y-107566666D01*
X136454819Y-106709523D02*
X137454819Y-106376190D01*
X137454819Y-106376190D02*
X136454819Y-106042857D01*
X137454819Y-105185714D02*
X137454819Y-105757142D01*
X137454819Y-105471428D02*
X136454819Y-105471428D01*
X136454819Y-105471428D02*
X136597676Y-105566666D01*
X136597676Y-105566666D02*
X136692914Y-105661904D01*
X136692914Y-105661904D02*
X136740533Y-105757142D01*
X130891905Y-103094819D02*
X130891905Y-102094819D01*
X130891905Y-102094819D02*
X131130000Y-102094819D01*
X131130000Y-102094819D02*
X131272857Y-102142438D01*
X131272857Y-102142438D02*
X131368095Y-102237676D01*
X131368095Y-102237676D02*
X131415714Y-102332914D01*
X131415714Y-102332914D02*
X131463333Y-102523390D01*
X131463333Y-102523390D02*
X131463333Y-102666247D01*
X131463333Y-102666247D02*
X131415714Y-102856723D01*
X131415714Y-102856723D02*
X131368095Y-102951961D01*
X131368095Y-102951961D02*
X131272857Y-103047200D01*
X131272857Y-103047200D02*
X131130000Y-103094819D01*
X131130000Y-103094819D02*
X130891905Y-103094819D01*
X132415714Y-103094819D02*
X131844286Y-103094819D01*
X132130000Y-103094819D02*
X132130000Y-102094819D01*
X132130000Y-102094819D02*
X132034762Y-102237676D01*
X132034762Y-102237676D02*
X131939524Y-102332914D01*
X131939524Y-102332914D02*
X131844286Y-102380533D01*
X121866666Y-109254819D02*
X121866666Y-109969104D01*
X121866666Y-109969104D02*
X121819047Y-110111961D01*
X121819047Y-110111961D02*
X121723809Y-110207200D01*
X121723809Y-110207200D02*
X121580952Y-110254819D01*
X121580952Y-110254819D02*
X121485714Y-110254819D01*
X122866666Y-110254819D02*
X122295238Y-110254819D01*
X122580952Y-110254819D02*
X122580952Y-109254819D01*
X122580952Y-109254819D02*
X122485714Y-109397676D01*
X122485714Y-109397676D02*
X122390476Y-109492914D01*
X122390476Y-109492914D02*
X122295238Y-109540533D01*
X147485595Y-97647819D02*
X147485595Y-98457342D01*
X147485595Y-98457342D02*
X147533214Y-98552580D01*
X147533214Y-98552580D02*
X147580833Y-98600200D01*
X147580833Y-98600200D02*
X147676071Y-98647819D01*
X147676071Y-98647819D02*
X147866547Y-98647819D01*
X147866547Y-98647819D02*
X147961785Y-98600200D01*
X147961785Y-98600200D02*
X148009404Y-98552580D01*
X148009404Y-98552580D02*
X148057023Y-98457342D01*
X148057023Y-98457342D02*
X148057023Y-97647819D01*
X149057023Y-98647819D02*
X148485595Y-98647819D01*
X148771309Y-98647819D02*
X148771309Y-97647819D01*
X148771309Y-97647819D02*
X148676071Y-97790676D01*
X148676071Y-97790676D02*
X148580833Y-97885914D01*
X148580833Y-97885914D02*
X148485595Y-97933533D01*
X125633333Y-98854819D02*
X125300000Y-98378628D01*
X125061905Y-98854819D02*
X125061905Y-97854819D01*
X125061905Y-97854819D02*
X125442857Y-97854819D01*
X125442857Y-97854819D02*
X125538095Y-97902438D01*
X125538095Y-97902438D02*
X125585714Y-97950057D01*
X125585714Y-97950057D02*
X125633333Y-98045295D01*
X125633333Y-98045295D02*
X125633333Y-98188152D01*
X125633333Y-98188152D02*
X125585714Y-98283390D01*
X125585714Y-98283390D02*
X125538095Y-98331009D01*
X125538095Y-98331009D02*
X125442857Y-98378628D01*
X125442857Y-98378628D02*
X125061905Y-98378628D01*
X125966667Y-97854819D02*
X126585714Y-97854819D01*
X126585714Y-97854819D02*
X126252381Y-98235771D01*
X126252381Y-98235771D02*
X126395238Y-98235771D01*
X126395238Y-98235771D02*
X126490476Y-98283390D01*
X126490476Y-98283390D02*
X126538095Y-98331009D01*
X126538095Y-98331009D02*
X126585714Y-98426247D01*
X126585714Y-98426247D02*
X126585714Y-98664342D01*
X126585714Y-98664342D02*
X126538095Y-98759580D01*
X126538095Y-98759580D02*
X126490476Y-98807200D01*
X126490476Y-98807200D02*
X126395238Y-98854819D01*
X126395238Y-98854819D02*
X126109524Y-98854819D01*
X126109524Y-98854819D02*
X126014286Y-98807200D01*
X126014286Y-98807200D02*
X125966667Y-98759580D01*
%TO.C,R1*%
D11*
X137280000Y-99620000D02*
X141120000Y-99620000D01*
X137280000Y-97780000D02*
X141120000Y-97780000D01*
%TO.C,R2*%
X156450000Y-101350000D02*
X159500000Y-101350000D01*
X156450000Y-105650000D02*
X159500000Y-105650000D01*
X156450000Y-105650000D02*
G75*
G02*
X156471766Y-101334475I1550000J2150000D01*
G01*
X159500000Y-101350000D02*
G75*
G02*
X159544513Y-105618249I-1500000J-2150000D01*
G01*
%TO.C,RV1*%
X138140000Y-109865000D02*
X138140000Y-102935000D01*
X139053000Y-109865000D02*
X138140000Y-109865000D01*
X142860000Y-109865000D02*
X139487000Y-109865000D01*
X138140000Y-102935000D02*
X139053000Y-102935000D01*
X139487000Y-102935000D02*
X142860000Y-102935000D01*
X142860000Y-102935000D02*
X142860000Y-109865000D01*
%TO.C,D1*%
X129070000Y-105055000D02*
X129070000Y-108145000D01*
X129070000Y-105055170D02*
G75*
G02*
X134620000Y-106600000I2560000J-1544830D01*
G01*
X134620000Y-106600000D02*
G75*
G02*
X129070000Y-108144830I-2990000J0D01*
G01*
X134130000Y-106600000D02*
G75*
G02*
X129130000Y-106600000I-2500000J0D01*
G01*
X129130000Y-106600000D02*
G75*
G02*
X134130000Y-106600000I2500000J0D01*
G01*
%TO.C,J1*%
X125155000Y-108210000D02*
X123885000Y-108210000D01*
X125155000Y-106940000D02*
X125155000Y-108210000D01*
X122807642Y-104830000D02*
X122495000Y-104830000D01*
X122807642Y-103970000D02*
X122495000Y-103970000D01*
X122807642Y-102290000D02*
X122495000Y-102290000D01*
X122807642Y-101430000D02*
X122495000Y-101430000D01*
X122725000Y-107370000D02*
X122495000Y-107370000D01*
X122725000Y-106510000D02*
X122495000Y-106510000D01*
X122495000Y-105670000D02*
X119735000Y-105670000D01*
X122495000Y-103130000D02*
X119735000Y-103130000D01*
X119735000Y-104830000D02*
X113735000Y-104830000D01*
X119735000Y-102290000D02*
X113735000Y-102290000D01*
X113735000Y-104830000D02*
X113735000Y-103970000D01*
X113735000Y-103970000D02*
X119735000Y-103970000D01*
X113735000Y-102290000D02*
X113735000Y-101430000D01*
X113735000Y-101430000D02*
X119735000Y-101430000D01*
X119735000Y-100480000D02*
X122495000Y-100480000D01*
X122495000Y-108320000D01*
X119735000Y-108320000D01*
X119735000Y-100480000D01*
X113735000Y-106510000D02*
X119735000Y-106510000D01*
X119735000Y-107370000D01*
X113735000Y-107370000D01*
X113735000Y-106510000D01*
G36*
X113735000Y-106510000D02*
G01*
X119735000Y-106510000D01*
X119735000Y-107370000D01*
X113735000Y-107370000D01*
X113735000Y-106510000D01*
G37*
%TO.C,U1*%
D12*
X145637500Y-99005000D02*
X151987500Y-99005000D01*
X145637500Y-108595000D02*
X151987500Y-108595000D01*
D13*
X143877500Y-99990000D02*
G75*
G02*
X143677500Y-99990000I-100000J0D01*
G01*
X143677500Y-99990000D02*
G75*
G02*
X143877500Y-99990000I100000J0D01*
G01*
%TO.C,R3*%
D11*
X128480000Y-97980000D02*
X132320000Y-97980000D01*
X128480000Y-99820000D02*
X132320000Y-99820000D01*
%TD*%
M02*
